# xmcd
#
# Track frame offsets: 
#        150
#        10622
#        28857
#        47954
#        68289
#        84195
#        105357
#        125167
#        142577
#        158187
#
# Disc length: 2402 seconds
#
# Revision: 0
# Processed by: cddbd v1.5.2PL0 Copyright (c) Steve Scherf et al.
# Submitted via: ExactAudioCopy v1.3
#
DISCID=6e09600a
DTITLE=Cajun Bouexi Band - Grand Texas
DYEAR=2017
DGENRE=cajun
TTITLE0=Jolie fille
TTITLE1=Si demain vient plus jamais
TTITLE2=Bosco stomp
TTITLE3=Clavier minuit.... Tits yeux noirs
TTITLE4=Tu peux pas m'arrêter de rêver
TTITLE5=Marie mouri
TTITLE6=Une livre de tabac
TTITLE7=Valse de l'orphelin
TTITLE8=Gran Texas
TTITLE9=Jolie fille outro
EXTD=
EXTT0=
EXTT1=
EXTT2=
EXTT3=
EXTT4=
EXTT5=
EXTT6=
EXTT7=
EXTT8=
EXTT9=
PLAYORDER=
